<svg height="464pt" viewBox="-40 0 464 464" width="464pt" xmlns="http://www.w3.org/2000/svg"><path d="m384 464-48-64-48 64zm0 0" fill="#60a0aa"/><path d="m216 96h32v272h-32zm0 0" fill="#8d7761"/><path d="m216 344h32v24h-32zm0 0" fill="#746250"/><path d="m256.34375 167.921875-48.34375.078125-3.457031-13.824219c-2.671875-10.679687-12.269531-18.175781-23.277344-18.175781h-23.335937c-8.617188 0-16.570313 4.617188-20.839844 12.097656l-25.089844 43.902344h-112v88h112l35.710938 14.28125c2.835937 1.136719 5.859374 1.71875 8.914062 1.71875h75.375c13.253906 0 24-10.746094 24-24v-72c8.835938 0 16-7.164062 16-16v-.449219c-.003906-8.640625-7.015625-15.640625-15.65625-15.628906zm0 0" fill="#fdc9a6"/><path d="m216 112v-112l144 56zm0 0" fill="#fbb540"/><path d="m216 360-80 104h200l-88-104zm0 0" fill="#64a8b2"/><path d="m216 464-72-72-64 72zm0 0" fill="#6fbbc6"/><path d="m192 384 24 24 16-16 16 16 24-24-24-24h-32zm0 0" fill="#f9f9f9"/><path d="m64 192h32v88h-32zm0 0" fill="#d9d9d9"/><path d="m0 192h64v88h-64zm0 0" fill="#69b0bb"/><path d="m24 216h16v16h-16zm0 0" fill="#5d9aa4"/></svg>