<?xml version="1.0" encoding="iso-8859-1"?>
<!-- Generator: Adobe Illustrator 19.0.0, SVG Export Plug-In . SVG Version: 6.00 Build 0)  -->
<svg version="1.1" id="Capa_1" xmlns="http://www.w3.org/2000/svg" xmlns:xlink="http://www.w3.org/1999/xlink" x="0px" y="0px"
	 viewBox="0 0 512 512" style="enable-background:new 0 0 512 512;" xml:space="preserve">
<path style="fill:#6AA9FF;" d="M396.308,140.308c-34.427,0-67.167,15.511-89.051,41.846H204.743
	c-21.885-26.335-54.624-41.846-89.051-41.846C51.899,140.308,0,192.207,0,256s51.899,115.692,115.692,115.692
	c58.789,0,107.479-44.08,114.754-100.923h51.107c7.275,56.843,55.965,100.923,114.754,100.923C460.101,371.692,512,319.793,512,256
	S460.101,140.308,396.308,140.308z"/>
<path style="fill:#2682FF;" d="M396.308,140.308c-34.427,0-67.167,15.511-89.051,41.846H256v88.615h25.554
	c7.275,56.843,55.965,100.923,114.754,100.923C460.101,371.692,512,319.793,512,256S460.101,140.308,396.308,140.308z"/>
<g>
	<path style="fill:#BDFDFF;" d="M115.692,189.538c-36.647,0-66.462,29.814-66.462,66.462s29.814,66.462,66.462,66.462
		s66.462-29.814,66.462-66.462S152.34,189.538,115.692,189.538z"/>
	<path style="fill:#BDFDFF;" d="M396.308,189.538c-36.647,0-66.462,29.814-66.462,66.462s29.814,66.462,66.462,66.462
		s66.462-29.814,66.462-66.462S432.955,189.538,396.308,189.538z"/>
</g>
<g>
	<path style="fill:#9BFBFF;" d="M396.308,189.538L396.308,189.538l-0.001,132.923c0,0,0,0,0.001,0
		c36.647,0,66.462-29.814,66.462-66.462S432.955,189.538,396.308,189.538z"/>
	<path style="fill:#9BFBFF;" d="M115.693,189.538C115.692,189.538,115.692,189.538,115.693,189.538l-0.001,132.923c0,0,0,0,0.001,0
		c36.647,0,66.462-29.814,66.462-66.462S152.34,189.538,115.693,189.538z"/>
</g>
<g>
</g>
<g>
</g>
<g>
</g>
<g>
</g>
<g>
</g>
<g>
</g>
<g>
</g>
<g>
</g>
<g>
</g>
<g>
</g>
<g>
</g>
<g>
</g>
<g>
</g>
<g>
</g>
<g>
</g>
</svg>
